<svg width="1440" height="834" viewBox="0 0 1440 834" fill="none" xmlns="http://www.w3.org/2000/svg">
<g filter="url(#filter0_f)">
<path d="M993.085 908.711C919.031 1133.52 734.23 1233.65 506.571 1158.66C278.911 1083.66 -209.974 791.896 -135.92 567.086C-61.8657 342.276 -59.7456 909.78 584.529 471.226C1149.14 102.24 1067.14 683.901 993.085 908.711Z" fill="url(#paint0_linear)"/>
</g>
<g filter="url(#filter1_f)">
<path d="M1403.72 391.896C1358.24 571.341 1215.13 689.886 1084.06 656.673C952.995 623.459 827.294 618.207 872.767 438.762C918.239 259.316 967.561 235.571 1139.54 279.15C1270.6 312.364 1274.88 136.117 1403.72 391.896Z" fill="url(#paint1_linear)"/>
</g>
<g filter="url(#filter2_f)">
<ellipse cx="180" cy="120" rx="280" ry="180" fill="#E2E8F0" fill-opacity="0.45"/>
</g>
<defs>
<filter id="filter0_f" x="-393.479" y="101.584" width="1689.18" height="1331.68" filterUnits="userSpaceOnUse" color-interpolation-filters="sRGB">
<feFlood flood-opacity="0" result="BackgroundImageFix"/>
<feBlend mode="normal" in="SourceGraphic" in2="BackgroundImageFix" result="shape"/>
<feGaussianBlur stdDeviation="125" result="effect1_foregroundBlur"/>
</filter>
<filter id="filter1_f" x="613.275" y="0.543945" width="1040.44" height="911.706" filterUnits="userSpaceOnUse" color-interpolation-filters="sRGB">
<feFlood flood-opacity="0" result="BackgroundImageFix"/>
<feBlend mode="normal" in="SourceGraphic" in2="BackgroundImageFix" result="shape"/>
<feGaussianBlur stdDeviation="125" result="effect1_foregroundBlur"/>
</filter>
<filter id="filter2_f" x="-250" y="-210" width="860" height="660" filterUnits="userSpaceOnUse" color-interpolation-filters="sRGB">
<feFlood flood-opacity="0" result="BackgroundImageFix"/>
<feBlend mode="normal" in="SourceGraphic" in2="BackgroundImageFix" result="shape"/>
<feGaussianBlur stdDeviation="90" result="effect1_foregroundBlur"/>
</filter>
<linearGradient id="paint0_linear" x1="206.96" y1="660.118" x2="654.531" y2="348.777" gradientUnits="userSpaceOnUse">
<stop stop-color="#DBEAFE" stop-opacity="0.7"/>
<stop offset="1" stop-color="#93C5FD" stop-opacity="0.35"/>
</linearGradient>
<linearGradient id="paint1_linear" x1="872" y1="250" x2="1320" y2="620" gradientUnits="userSpaceOnUse">
<stop stop-color="#E9D5FF" stop-opacity="0.55"/>
<stop offset="1" stop-color="#C4B5FD" stop-opacity="0.3"/>
</linearGradient>
</defs>
</svg>
